<mxfile host="app.diagrams.net" agent="Mozilla/5.0 (Windows NT 10.0; Win64; x64) AppleWebKit/537.36 (KHTML, like Gecko) Chrome/109.0.0.0 Safari/537.36 Edg/109.0.1518.52" version="27.0.5">
  <diagram name="第 1 页" id="tLad5_BiM6BKpu_eWTYe">
    <mxGraphModel dx="2066" dy="1161" grid="1" gridSize="10" guides="1" tooltips="1" connect="1" arrows="1" fold="1" page="1" pageScale="1" pageWidth="827" pageHeight="1169" math="0" shadow="0">
      <root>
        <mxCell id="0" />
        <mxCell id="1" parent="0" />
        <mxCell id="h63j-0x-FzX3-aJfb9_C-4" value="&lt;font style=&quot;font-size: 14px;&quot;&gt;开始&lt;/font&gt;" style="strokeWidth=2;html=1;shape=mxgraph.flowchart.terminator;whiteSpace=wrap;" parent="1" vertex="1">
          <mxGeometry x="340" y="230" width="150" height="70" as="geometry" />
        </mxCell>
        <mxCell id="h63j-0x-FzX3-aJfb9_C-7" value="" style="endArrow=classic;html=1;rounded=0;strokeWidth=2;" parent="1" edge="1">
          <mxGeometry width="50" height="50" relative="1" as="geometry">
            <mxPoint x="414.76" y="300" as="sourcePoint" />
            <mxPoint x="415" y="340" as="targetPoint" />
          </mxGeometry>
        </mxCell>
        <mxCell id="h63j-0x-FzX3-aJfb9_C-8" value="管理员用户登录系统后台" style="rounded=0;whiteSpace=wrap;html=1;strokeWidth=2;" parent="1" vertex="1">
          <mxGeometry x="285" y="340" width="260" height="60" as="geometry" />
        </mxCell>
        <mxCell id="h63j-0x-FzX3-aJfb9_C-9" value="" style="endArrow=classic;html=1;rounded=0;strokeWidth=2;" parent="1" edge="1">
          <mxGeometry width="50" height="50" relative="1" as="geometry">
            <mxPoint x="413.76" y="400" as="sourcePoint" />
            <mxPoint x="414" y="440" as="targetPoint" />
          </mxGeometry>
        </mxCell>
        <mxCell id="h63j-0x-FzX3-aJfb9_C-10" value="进入器材信息管理模块，点击添加按钮" style="rounded=0;whiteSpace=wrap;html=1;strokeWidth=2;" parent="1" vertex="1">
          <mxGeometry x="284" y="440" width="260" height="60" as="geometry" />
        </mxCell>
        <mxCell id="h63j-0x-FzX3-aJfb9_C-11" value="" style="endArrow=classic;html=1;rounded=0;strokeWidth=2;" parent="1" edge="1">
          <mxGeometry width="50" height="50" relative="1" as="geometry">
            <mxPoint x="414.26" y="500" as="sourcePoint" />
            <mxPoint x="414.5" y="540" as="targetPoint" />
          </mxGeometry>
        </mxCell>
        <mxCell id="h63j-0x-FzX3-aJfb9_C-27" value="" style="edgeStyle=orthogonalEdgeStyle;rounded=0;orthogonalLoop=1;jettySize=auto;html=1;" parent="1" source="h63j-0x-FzX3-aJfb9_C-12" target="h63j-0x-FzX3-aJfb9_C-14" edge="1">
          <mxGeometry relative="1" as="geometry" />
        </mxCell>
        <mxCell id="h63j-0x-FzX3-aJfb9_C-12" value="填写商品基本信息（分类、名称、简介等）" style="rounded=0;whiteSpace=wrap;html=1;strokeWidth=2;" parent="1" vertex="1">
          <mxGeometry x="284.5" y="540" width="260" height="60" as="geometry" />
        </mxCell>
        <mxCell id="h63j-0x-FzX3-aJfb9_C-13" value="" style="endArrow=classic;html=1;rounded=0;strokeWidth=2;" parent="1" edge="1">
          <mxGeometry width="50" height="50" relative="1" as="geometry">
            <mxPoint x="413.26" y="600" as="sourcePoint" />
            <mxPoint x="413.5" y="640" as="targetPoint" />
          </mxGeometry>
        </mxCell>
        <mxCell id="h63j-0x-FzX3-aJfb9_C-28" value="" style="edgeStyle=orthogonalEdgeStyle;rounded=0;orthogonalLoop=1;jettySize=auto;html=1;" parent="1" source="h63j-0x-FzX3-aJfb9_C-14" target="h63j-0x-FzX3-aJfb9_C-20" edge="1">
          <mxGeometry relative="1" as="geometry" />
        </mxCell>
        <mxCell id="h63j-0x-FzX3-aJfb9_C-14" value="点击保存按钮，提交商品信息到数据库" style="rounded=0;whiteSpace=wrap;html=1;strokeWidth=2;" parent="1" vertex="1">
          <mxGeometry x="283.5" y="640" width="260" height="60" as="geometry" />
        </mxCell>
        <mxCell id="h63j-0x-FzX3-aJfb9_C-19" value="" style="endArrow=classic;html=1;rounded=0;strokeWidth=2;" parent="1" edge="1">
          <mxGeometry width="50" height="50" relative="1" as="geometry">
            <mxPoint x="413.76" y="700" as="sourcePoint" />
            <mxPoint x="414" y="740" as="targetPoint" />
          </mxGeometry>
        </mxCell>
        <mxCell id="h63j-0x-FzX3-aJfb9_C-29" value="" style="edgeStyle=orthogonalEdgeStyle;rounded=0;orthogonalLoop=1;jettySize=auto;html=1;" parent="1" source="h63j-0x-FzX3-aJfb9_C-20" target="h63j-0x-FzX3-aJfb9_C-25" edge="1">
          <mxGeometry relative="1" as="geometry" />
        </mxCell>
        <mxCell id="h63j-0x-FzX3-aJfb9_C-30" value="" style="edgeStyle=orthogonalEdgeStyle;rounded=0;orthogonalLoop=1;jettySize=auto;html=1;" parent="1" source="h63j-0x-FzX3-aJfb9_C-20" target="h63j-0x-FzX3-aJfb9_C-25" edge="1">
          <mxGeometry relative="1" as="geometry" />
        </mxCell>
        <mxCell id="h63j-0x-FzX3-aJfb9_C-20" value="系统提示新增成功，上架完成" style="rounded=0;whiteSpace=wrap;html=1;strokeWidth=2;" parent="1" vertex="1">
          <mxGeometry x="284" y="740" width="260" height="60" as="geometry" />
        </mxCell>
        <mxCell id="h63j-0x-FzX3-aJfb9_C-21" value="" style="endArrow=classic;html=1;rounded=0;" parent="1" edge="1">
          <mxGeometry width="50" height="50" relative="1" as="geometry">
            <mxPoint x="412.76" y="800" as="sourcePoint" />
            <mxPoint x="413" y="840" as="targetPoint" />
          </mxGeometry>
        </mxCell>
        <mxCell id="h63j-0x-FzX3-aJfb9_C-25" value="&lt;font style=&quot;font-size: 14px; text-shadow: rgb(0, 0, 0) 0px 0px 0px !important;&quot;&gt;结束&lt;/font&gt;" style="strokeWidth=2;html=1;shape=mxgraph.flowchart.terminator;whiteSpace=wrap;" parent="1" vertex="1">
          <mxGeometry x="339" y="840" width="150" height="70" as="geometry" />
        </mxCell>
      </root>
    </mxGraphModel>
  </diagram>
</mxfile>
